<?xml version="1.0" encoding="utf-8"?>
<!-- Generator: Adobe Illustrator 28.1.0, SVG Export Plug-In . SVG Version: 6.00 Build 0)  -->
<!DOCTYPE svg PUBLIC "-//W3C//DTD SVG 1.1//EN" "http://www.w3.org/Graphics/SVG/1.1/DTD/svg11.dtd">
<svg version="1.1" id="Layer_1" xmlns:xodm="http://www.corel.com/coreldraw/odm/2003"
	 xmlns="http://www.w3.org/2000/svg" xmlns:xlink="http://www.w3.org/1999/xlink" x="0px" y="0px" viewBox="0 0 96.4 96.4"
	 style="enable-background:new 0 0 96.4 96.4;" xml:space="preserve">
<g id="g3027" transform="matrix(1,0,0,-1,30.372881,1426.9492)">
	<path id="path3029" d="M47.2,1382.2v-22.8c0-3.6-1.3-6.6-3.8-9.2c-2.5-2.5-5.6-3.8-9.2-3.8H1.3c-3.6,0-6.6,1.3-9.2,3.8
		c-2.5,2.5-3.8,5.6-3.8,9.2v38.7c0,3.6,1.3,6.6,3.8,9.2s5.6,3.8,9.2,3.8h16.2c0.4,0,0.8-0.1,1-0.4s0.4-0.6,0.4-1v-2.9
		c0-0.4-0.1-0.8-0.4-1c-0.3-0.3-0.6-0.4-1-0.4H1.3c-2,0-3.7-0.7-5.1-2.1c-1.4-1.4-2.1-3.1-2.1-5.1v-38.7c0-2,0.7-3.7,2.1-5.1
		s3.1-2.1,5.1-2.1h32.9c2,0,3.7,0.7,5.1,2.1s2.1,3.1,2.1,5.1v22.8c0,0.4,0.1,0.8,0.4,1c0.3,0.3,0.6,0.4,1,0.4h2.9
		c0.4,0,0.8-0.1,1-0.4C47.1,1383,47.2,1382.7,47.2,1382.2z M47.3,1409.1l0-15.7c0-0.5-0.2-1-0.6-1.4c-0.4-0.4-0.8-0.6-1.4-0.6
		c-0.5,0-1,0.2-1.4,0.6l-5.4,5.4l-20-20.1c-0.2-0.2-0.4-0.3-0.7-0.3c-0.3,0-0.5,0.1-0.7,0.3l-3.5,3.5c-0.2,0.2-0.3,0.4-0.3,0.7
		s0.1,0.5,0.3,0.7l20,20.1l-5.4,5.4c-0.4,0.4-0.6,0.8-0.6,1.4s0.2,1,0.6,1.4c0.4,0.4,0.8,0.6,1.4,0.6l15.7,0c0.5,0,1-0.2,1.4-0.6
		S47.3,1409.7,47.3,1409.1z"/>
</g>
</svg>
