<?xml version="1.0" encoding="utf-8"?>
<!-- Generator: Adobe Illustrator 28.1.0, SVG Export Plug-In . SVG Version: 6.00 Build 0)  -->
<!DOCTYPE svg PUBLIC "-//W3C//DTD SVG 1.1//EN" "http://www.w3.org/Graphics/SVG/1.1/DTD/svg11.dtd">
<svg version="1.1" id="Layer_1" xmlns:xodm="http://www.corel.com/coreldraw/odm/2003"
	 xmlns="http://www.w3.org/2000/svg" xmlns:xlink="http://www.w3.org/1999/xlink" x="0px" y="0px" viewBox="0 0 96.4 96.4"
	 style="enable-background:new 0 0 96.4 96.4;" xml:space="preserve">
<g>
	<path d="M76.3,68.3c0,15.5-12.6,28.1-28.1,28.1S20.1,83.8,20.1,68.3c0-4.2,0.9-8.1,2.5-11.7c0.1-0.3,0.2-0.5,0.4-0.8
		c0.1-0.2,0.2-0.4,0.3-0.6c0.1-0.1,0.1-0.3,0.2-0.4c0.1-0.1,0.1-0.3,0.2-0.4c0.3-0.4,0.5-0.9,0.8-1.3c0.1-0.1,0.2-0.3,0.3-0.4
		c0.1-0.1,0.2-0.2,0.3-0.4c0,0,0-0.1,0.1-0.1c0.1-0.1,0.2-0.2,0.3-0.4c0.1-0.1,0.2-0.2,0.3-0.4c0.2-0.2,0.3-0.5,0.5-0.7
		c0-0.1,0.1-0.1,0.1-0.2c0.3-0.4,0.6-0.7,0.9-1c0-0.1,0.1-0.1,0.1-0.2c0.1-0.1,0.2-0.2,0.2-0.3c0.1-0.1,0.2-0.2,0.3-0.4
		c0.1-0.1,0.2-0.2,0.3-0.3c0.1-0.1,0.3-0.3,0.4-0.4c0.1-0.1,0.2-0.2,0.4-0.3c0.4-0.4,0.8-0.7,1.2-1c0.1-0.1,0.2-0.2,0.3-0.3
		c0.1-0.1,0.3-0.2,0.4-0.3c0,0,0,0,0,0c0.1-0.1,0.2-0.2,0.4-0.3c0.1-0.1,0.2-0.2,0.4-0.3c0,0,0.1,0,0.1-0.1c0.1-0.1,0.2-0.2,0.4-0.3
		c0.2-0.1,0.3-0.2,0.5-0.3c0.1-0.1,0.2-0.2,0.3-0.2c0.1-0.1,0.3-0.2,0.4-0.3c0.1-0.1,0.2-0.1,0.3-0.2c0,0,0.1,0,0.1-0.1
		c0.1,0,0.1-0.1,0.2-0.1c0.1-0.1,0.2-0.1,0.3-0.2c0.1-0.1,0.3-0.2,0.4-0.2c0,0,0,0,0,0c0.1-0.1,0.3-0.2,0.4-0.2
		c0.1-0.1,0.2-0.1,0.3-0.2c0.2-0.1,0.4-0.2,0.6-0.3c0.1-0.1,0.3-0.1,0.4-0.2c0,0,0,0,0,0c0.1-0.1,0.3-0.1,0.4-0.2
		c0.1-0.1,0.3-0.1,0.4-0.2c0.1-0.1,0.3-0.1,0.4-0.2c0.1,0,0.2-0.1,0.2-0.1c0.4-0.2,0.8-0.3,1.3-0.5c0.1,0,0.3-0.1,0.4-0.1
		c0,0,0,0,0,0c0.2-0.1,0.3-0.1,0.5-0.2c0.2,0,0.3-0.1,0.5-0.1c0,0,0,0,0,0c0.2,0,0.3-0.1,0.5-0.1c0.2,0,0.4-0.1,0.6-0.1
		c0.1,0,0.3-0.1,0.4-0.1c0.3-0.1,0.7-0.1,1-0.2c0.2,0,0.3-0.1,0.5-0.1c0,0,0,0,0.1,0c0.2,0,0.3,0,0.5-0.1c0.2,0,0.3-0.1,0.5-0.1
		c0.3,0,0.6-0.1,0.9-0.1c0.1,0,0.1,0,0.2,0c0,0,0,0,0.1,0c0.2,0,0.4,0,0.5,0c0.1,0,0.2,0,0.3,0c0,0,0.1,0,0.1,0c0.1,0,0.2,0,0.3,0
		c0,0,0.1,0,0.1,0c0.1,0,0.1,0,0.2,0c0.1,0,0.2,0,0.4,0c0.2,0,0.4,0,0.5,0s0.4,0,0.5,0c0.1,0,0.2,0,0.4,0c0.1,0,0.1,0,0.2,0
		c0,0,0.1,0,0.1,0c0.1,0,0.2,0,0.3,0c0,0,0.1,0,0.1,0c0.1,0,0.2,0,0.3,0c0.2,0,0.4,0,0.5,0c0,0,0,0,0.1,0c0.1,0,0.1,0,0.2,0
		c0.3,0,0.6,0.1,0.9,0.1c0.2,0,0.3,0,0.5,0.1c0.2,0,0.3,0,0.5,0.1c0,0,0,0,0.1,0c0.2,0,0.3,0.1,0.5,0.1c0.3,0.1,0.7,0.1,1,0.2
		c0.1,0,0.3,0.1,0.4,0.1c0.2,0,0.4,0.1,0.6,0.1c0.2,0,0.3,0.1,0.5,0.1c0,0,0,0,0,0c0.2,0,0.3,0.1,0.5,0.1c0.2,0,0.3,0.1,0.5,0.2
		c0,0,0,0,0,0c0.1,0,0.3,0.1,0.4,0.1c0.4,0.1,0.9,0.3,1.3,0.5c0.1,0,0.2,0.1,0.2,0.1c0.1,0.1,0.3,0.1,0.4,0.2
		c0.1,0.1,0.3,0.1,0.4,0.2c0.1,0.1,0.3,0.1,0.4,0.2c0,0,0,0,0,0c0.1,0.1,0.3,0.1,0.4,0.2c0.2,0.1,0.4,0.2,0.6,0.3
		c0.1,0.1,0.2,0.1,0.3,0.2c0.1,0.1,0.3,0.2,0.4,0.2c0,0,0,0,0,0c0.1,0.1,0.3,0.2,0.4,0.2c0.1,0.1,0.2,0.1,0.3,0.2
		c0.1,0,0.1,0.1,0.2,0.1c0,0,0.1,0,0.1,0.1c0.1,0.1,0.2,0.1,0.3,0.2c0.1,0.1,0.3,0.2,0.4,0.3c0.1,0.1,0.2,0.2,0.3,0.2
		c0.2,0.1,0.3,0.2,0.5,0.3c0.1,0.1,0.2,0.2,0.4,0.3c0,0,0.1,0,0.1,0.1c0.1,0.1,0.2,0.2,0.4,0.3c0.1,0.1,0.2,0.2,0.4,0.3c0,0,0,0,0,0
		c0.1,0.1,0.3,0.2,0.4,0.3c0.1,0.1,0.2,0.2,0.3,0.3c0.4,0.3,0.8,0.7,1.2,1c0.1,0.1,0.2,0.2,0.4,0.3c0.1,0.1,0.3,0.3,0.4,0.4
		c0.1,0.1,0.2,0.2,0.3,0.3c0.1,0.1,0.2,0.2,0.3,0.4c0.1,0.1,0.2,0.2,0.2,0.3c0,0.1,0.1,0.1,0.1,0.2c0.3,0.3,0.6,0.7,0.9,1
		c0,0.1,0.1,0.1,0.1,0.2c0.2,0.2,0.4,0.5,0.5,0.7c0.1,0.1,0.2,0.2,0.3,0.4c0.1,0.1,0.2,0.2,0.3,0.4c0,0,0,0.1,0.1,0.1
		c0.1,0.1,0.2,0.2,0.3,0.4c0.1,0.1,0.2,0.3,0.3,0.4c0.3,0.4,0.5,0.9,0.8,1.3c0.1,0.1,0.1,0.3,0.2,0.4c0.1,0.1,0.1,0.3,0.2,0.4
		c0.1,0.2,0.2,0.4,0.3,0.6c0.1,0.3,0.3,0.5,0.4,0.8C75.4,60.2,76.3,64.1,76.3,68.3z"/>
	<circle cx="48.2" cy="68.3" r="28.1"/>
	<path d="M22.6,56.6c0.1-0.3,0.2-0.5,0.4-0.8C22.9,56.1,22.8,56.3,22.6,56.6z"/>
	<path d="M73.4,55.8c0.1,0.3,0.3,0.5,0.4,0.8C73.7,56.3,73.5,56.1,73.4,55.8z"/>
	<path d="M96.4,38.2L79.9,51.6c-6-11.4-17.9-19.1-31.7-19.1s-25.7,7.7-31.7,19.1L0,38.2L48.2,0L96.4,38.2z"/>
</g>
</svg>
