<?xml version="1.0" encoding="utf-8"?>
<!-- Generator: Adobe Illustrator 28.1.0, SVG Export Plug-In . SVG Version: 6.00 Build 0)  -->
<!DOCTYPE svg PUBLIC "-//W3C//DTD SVG 1.1//EN" "http://www.w3.org/Graphics/SVG/1.1/DTD/svg11.dtd" [
	<!ENTITY st0 "fill:#005699;">
]>
<svg version="1.1" id="Layer_1" xmlns:xodm="http://www.corel.com/coreldraw/odm/2003"
	 xmlns="http://www.w3.org/2000/svg" xmlns:xlink="http://www.w3.org/1999/xlink" x="0px" y="0px" viewBox="0 0 96.4 96.4"
	 style="enable-background:new 0 0 96.4 96.4;" xml:space="preserve">
<g>
	<path style="&st0;" d="M0,64.5h8.8v31.9H0V64.5z"/>
	<path style="&st0;" d="M13.5,96.4V64.5h24.4v6.2H22.4v6.6h14.2v6.2H22.4v6.8h15.5v6.2L13.5,96.4L13.5,96.4z"/>
	<path style="&st0;" d="M42.8,96.4V64.5h24.3v6.2H51.7v6.6h14.2v6.2H51.7v6.8h15.5v6.2L42.8,96.4L42.8,96.4z"/>
	<path style="&st0;" d="M72.1,96.4V64.5h24.3v6.2H81v6.6h14.2v6.2H81v6.8h15.5v6.2L72.1,96.4L72.1,96.4z"/>
</g>
<path style="&st0;" d="M46.2,10.1c1.9-1.5,4.3-0.3,5.9,1.1c1.7,1.3,3.5,2.8,5,4.3l0.3,0.2c4.3,3.9,8.1,8.3,11.5,13
	c0.5,0.8,1,1.8,0.7,2.8c-1.1,2.7-3.3,4.9-5.2,7.3c-4.1,4.6-8.6,8.7-13.5,12.3c-1,0.7-2.4,1.3-3.6,0.8c-3.6-1.9-6.7-5-9.9-7.9
	c-3.8-3.5-7.2-7.3-10.2-11.5c-0.4-0.6-0.5-1.3-0.5-2.1c0.4-1.4,1.3-2.6,2.3-3.8c3.4-4.3,7.3-8.2,11.4-11.8l0.4-0.4
	C42.6,12.7,44.4,11.4,46.2,10.1 M52,3.9l-2.3-3.3c-0.3-0.2-0.7-0.4-1-0.5c-0.7-0.3-1.4,0.1-2,0.5L42.5,6
	C35.9,14.5,28,21.9,19.2,28.1c-0.7,0.5-1.7,1.1-1.9,2c-0.2,0.8,0.2,1.5,0.7,2c7.1,4.9,13.7,10.6,19.5,17c1.1,1.1,1.9,2.2,2.9,3.3
	c1.7,2.3,3.8,4.6,5.4,7.1c0.5,0.5,0.6,1.4,1.4,1.6c0.6,0.2,1.4,0.3,2,0l0.6-0.6C57,50.1,66,41,76.3,33.6c1-0.9,3-1.2,3-2.9
	c-0.1-0.8-0.5-1.5-1.2-2h-0.2c-5.3-3.6-10.2-7.7-14.8-12.2L58,11.2C56,8.9,54,6.4,52,3.9 M47.1,13.6c1.7-1.2,3.3,0.4,4.6,1.4
	c5.2,4.1,9.8,8.9,13.7,14.2c0.5,0.7,0.7,1.7,0.3,2.5c-1,1.6-2.2,3.1-3.5,4.5v0.1c-3,3.4-6.3,6.5-9.8,9.3c-1.7,1-3.3,3.3-5.4,1.9
	c-5.1-3.8-9.8-8.2-13.8-13c-0.7-1.1-1.7-2-2.2-3.2c-0.6-1.6,0.8-2.8,1.7-4.1C36.6,22.3,41.8,17.3,47.1,13.6 M48.4,14.7l-0.6,1.7
	l-2.8,8c0.7,0.1,1.6,0,2.2,0.1v0.1l-0.4,9l0.1,0.1c0.9,0.1,2,0.1,2.9,0v-0.2l-0.4-8.7l0.1-0.3h2.4C50.7,21.1,49.6,17.9,48.4,14.7
	L48.4,14.7z M39,27c-1.6,0.8-3.8,2-3.6,4.1c0.3,1.2,1.6,1.9,2.6,2.4c5.5,2.4,12.8,2.5,18.6,0.7c1.4-0.6,3.3-1.3,3.6-3.1
	c0-1.4-1.5-2.3-2.7-2.9v-0.1c0.4-0.2,0.8-0.3,1.2-0.3v-0.1c-1.9-0.3-3.8-0.8-5.7-1.3c0.3,0.8,0.6,1.7,0.9,2.6
	c0.6-0.2,1.2-0.3,1.8-0.4c1,0.4,2.4,0.9,2.6,2.2c0.1,1.2-1.2,1.7-2,2.2c-4.3,1.5-9,1.7-13.5,0.5c-1.2-0.4-3-0.9-3.1-2.5
	c0.9-2,3.1-2.5,5-3c-1-0.6-1.9-1.2-2.9-1.9C40.8,26.2,39.9,26.6,39,27 M46.8,36c-0.2,3.2-0.2,6.1-0.4,9.3c1.3,0.1,2.7,0.2,4,0
	L50,36.4L49.9,36C48.9,36,47.9,36.1,46.8,36"/>
</svg>
