<?xml version="1.0" encoding="utf-8"?>
<!-- Generator: Adobe Illustrator 28.1.0, SVG Export Plug-In . SVG Version: 6.00 Build 0)  -->
<!DOCTYPE svg PUBLIC "-//W3C//DTD SVG 1.1//EN" "http://www.w3.org/Graphics/SVG/1.1/DTD/svg11.dtd" [
	<!ENTITY st0 "fill-rule:evenodd;clip-rule:evenodd;">
]>
<svg version="1.1" id="Layer_1" xmlns:xodm="http://www.corel.com/coreldraw/odm/2003"
	 xmlns="http://www.w3.org/2000/svg" xmlns:xlink="http://www.w3.org/1999/xlink" x="0px" y="0px" viewBox="0 0 96.4 96.4"
	 style="enable-background:new 0 0 96.4 96.4;" xml:space="preserve">
<g>
	<polygon points="25.8,68.8 25.8,68.8 25.8,68.8 26.3,68.9 	"/>
</g>
<g>
	<path style="&st0;" d="M48.2,0C21.6,0,0,21.6,0,48.2s21.6,48.2,48.2,48.2s48.2-21.6,48.2-48.2S74.8,0,48.2,0z M35.3,71.8h-9.7V40.3
		h9.7V71.8z M30.4,36.2c-3.2,0-5.8-2.6-5.8-5.8s2.6-5.8,5.8-5.8s5.8,2.6,5.8,5.8C36.1,33.6,33.6,36.2,30.4,36.2z M71.8,71.8h-9.7
		V55.3c0-4.5-1.7-7.1-5.3-7.1c-3.9,0-5.9,2.6-5.9,7.1v16.5h-9.3V40.3h9.3v4.2c0,0,2.8-5.2,9.5-5.2s11.5,4.1,11.5,12.5L71.8,71.8
		L71.8,71.8z"/>
</g>
</svg>
