<?xml version="1.0" encoding="utf-8"?>
<!-- Generator: Adobe Illustrator 28.1.0, SVG Export Plug-In . SVG Version: 6.00 Build 0)  -->
<!DOCTYPE svg PUBLIC "-//W3C//DTD SVG 1.1//EN" "http://www.w3.org/Graphics/SVG/1.1/DTD/svg11.dtd" [
	<!ENTITY st0 "fill:#005699;">
	<!ENTITY st1 "fill:#008D1A;">
	<!ENTITY st2 "fill:none;stroke:#008D1A;stroke-width:8;stroke-linecap:round;stroke-miterlimit:10;">
]>
<svg version="1.1" id="Layer_1" xmlns:xodm="http://www.corel.com/coreldraw/odm/2003"
	 xmlns="http://www.w3.org/2000/svg" xmlns:xlink="http://www.w3.org/1999/xlink" x="0px" y="0px" viewBox="0 0 96.4 96.4"
	 style="enable-background:new 0 0 96.4 96.4;" xml:space="preserve">
<g>
	<path style="&st0;" d="M0,64.2h8.8v31.9H0V64.2z"/>
	<path style="&st0;" d="M13.5,96.1V64.2h24.4v6.2H22.4V77h14.2v6.2H22.4V90h15.5v6.2L13.5,96.1L13.5,96.1z"/>
	<path style="&st0;" d="M42.8,96.1V64.2h24.3v6.2H51.7V77h14.2v6.2H51.7V90h15.5v6.2L42.8,96.1L42.8,96.1z"/>
	<path style="&st0;" d="M72.1,96.1V64.2h24.3v6.2H80.9V77h14.2v6.2H80.9V90h15.5v6.2L72.1,96.1L72.1,96.1z"/>
</g>
<g>
	<path style="&st1;" d="M62.4,28.6H30.8c-3,0-5.4,2.4-5.4,5.4V51c0,3,2.4,5.4,5.4,5.4h31.6c3,0,5.4-2.4,5.4-5.4V34
		C67.8,31,65.4,28.6,62.4,28.6z M51,44.7c0,2.7-2,4.9-4.4,4.9s-4.4-2.2-4.4-4.9v-4.3c0-2.7,2-4.9,4.4-4.9c1.2,0,2.3,0.5,3.1,1.4
		c0.8,0.9,1.3,2.1,1.3,3.4V44.7z"/>
	<path style="&st2;" d="M50.5,29.6V18.1c0-7.5,6.1-13.6,13.7-13.6c3.8,0,7.2,1.5,9.7,4c2.5,2.5,4,5.9,4,9.6v9.3"/>
</g>
</svg>
