<?xml version="1.0" encoding="utf-8"?>
<!-- Generator: Adobe Illustrator 28.1.0, SVG Export Plug-In . SVG Version: 6.00 Build 0)  -->
<svg version="1.1" id="Layer_1" xmlns:xodm="http://www.corel.com/coreldraw/odm/2003"
	 xmlns="http://www.w3.org/2000/svg" xmlns:xlink="http://www.w3.org/1999/xlink" x="0px" y="0px" viewBox="0 0 96.4 96.4"
	 style="enable-background:new 0 0 96.4 96.4;" xml:space="preserve">
<path d="M48.2,0C21.6,0,0,21.6,0,48.2s21.6,48.2,48.2,48.2s48.2-21.6,48.2-48.2S74.8,0,48.2,0z M61.2,74L61.2,74L61.2,74
	c-0.2,0.3-0.5,0.5-0.7,0.7c-0.3,0.2-0.6,0.3-0.9,0.4c-0.6,0.2-1.3,0.2-2.1,0.2c-1,0-2.2-0.1-3.5-0.4c-1.2-0.2-2.4-0.6-3.5-1.2
	s-2.2-1.4-3.3-2.5C45,69,42.5,65.7,39,60.6l0,0c-0.6-1-1.1-1.7-1.5-2.1c-0.4-0.5-0.6-0.7-0.8-0.8c-0.1-0.1-0.2-0.1-0.4-0.2
	c-0.2,0-0.6-0.1-1.2-0.1l0,0c-0.7-0.1-1.3-0.1-1.6-0.1c-0.1,0-0.2,0-0.2,0l0,0l0,0c0,0.1-0.1,0.3-0.1,0.5c0,0.3,0,0.8,0,1.4
	c0,0.9,0,2.1,0,3.7c0,1.8,0,3.1,0.1,4.2c0.1,1,0.1,1.8,0.3,2.2c0.1,0.3,0.2,0.5,0.3,0.6c0.1,0.2,0.3,0.3,0.7,0.4
	c0.5,0.2,1.4,0.3,2.6,0.5l0,0c0.5,0.1,0.9,0.1,1.4,0.3c0.1,0.1,0.3,0.2,0.4,0.3c0.2,0.2,0.3,0.4,0.3,0.6c0.1,0.3,0.1,0.5,0.1,0.7
	c0,0.1,0,0.2,0,0.4c0,0.2-0.1,0.4-0.2,0.6c-0.1,0.1-0.2,0.3-0.4,0.4s-0.4,0.2-0.5,0.2c-0.2,0.1-0.5,0.1-0.8,0.1
	c-0.6,0.1-1.4,0.1-2.6,0.1c-1.2,0-2.8,0-4.9,0c-1.9,0-3.3,0-4.5,0c-1,0-1.8,0-2.4,0s-1-0.1-1.4-0.1c-0.2-0.1-0.5-0.1-0.7-0.3
	c-0.1-0.1-0.3-0.2-0.4-0.3c-0.1-0.1-0.2-0.3-0.2-0.4l0,0l0,0c-0.1-0.2-0.1-0.5-0.1-0.8s0.1-0.7,0.3-1c0.2-0.3,0.4-0.5,0.7-0.6
	c0.5-0.3,1.1-0.5,1.8-0.6l0,0c0.9-0.2,1.5-0.4,1.8-0.7c0.3-0.3,0.5-0.6,0.6-1l0,0l0.5,0.1l-0.5-0.1l0,0v-0.1c0-0.1,0-0.3,0-0.5
	c0-0.4,0-1,0.1-1.7c0-1.4,0-3.3,0-5.5s0-4.8,0-7.4l0,0c0-4.2,0-7.3-0.1-9.5c0-2.2-0.1-3.7-0.3-4.5c-0.1-0.6-0.2-0.8-0.3-0.9
	l-0.1-0.1c-0.1,0-0.2-0.1-0.4-0.1c-0.2-0.1-0.6-0.1-1-0.2c-0.7-0.1-1.2-0.3-1.6-0.5s-0.8-0.4-1.2-0.8c-0.2-0.3-0.3-0.6-0.3-1
	c0-0.2,0-0.4,0.1-0.6l0,0l0,0c0-0.1,0.1-0.3,0.3-0.5c0.2-0.2,0.4-0.3,0.6-0.4c0.4-0.2,0.8-0.2,1.4-0.2s1.5-0.1,2.8-0.1
	s3-0.1,5.1-0.1c2,0,3.8-0.1,5.4-0.1c4.2,0,7,0.2,9.1,0.7c2.1,0.5,3.6,1.5,5.1,2.8c2.3,2,3.5,4.7,3.5,7.4c0,2.1-0.7,4.2-2,6.2l0,0
	c-0.7,1-1.8,2.1-2.9,2.9c-1.1,0.9-2.3,1.6-3.4,2c-0.3,0.1-0.5,0.2-0.7,0.3l0,0c0.3,0.5,0.7,1.1,1.2,1.8c1,1.4,2.2,3,3,4.1
	c2.4,2.9,4.3,5,5.8,6.3s2.7,2,3.9,2.3c0.5,0.1,1,0.3,1.3,0.5c0.4,0.2,0.7,0.4,1,0.8c0.2,0.3,0.3,0.6,0.3,0.9
	C61.5,73.3,61.4,73.7,61.2,74z M75.8,35.3c-0.1,2.2-0.5,3.9-1.3,5.3c-0.8,1.4-2,2.4-3.5,3l0,0l0,0c-1.5,0.6-3.2,0.9-4.9,0.9
	c-0.7,0-1.3,0-2-0.2c-1.2-0.2-2.3-0.6-3.3-1.2c-0.9-0.6-1.7-1.3-2.3-2.3c-1.2-1.9-1.6-4.5-1.6-7.9c0-0.5,0-1,0-1.5
	c0.1-2.2,0.2-3.6,0.5-4.9c0.4-1.2,1-2.2,1.9-3.1l0,0l0,0c0.8-0.9,1.9-1.5,3.1-1.9c1.2-0.4,2.5-0.6,3.8-0.6c1.5,0,2.9,0.2,4.3,0.8
	c1.3,0.5,2.5,1.3,3.4,2.3c0.3,0.3,0.5,0.6,0.7,1c0.2,0.3,0.3,0.7,0.3,1.1c0,0.3-0.1,0.6-0.2,0.8c-0.1,0.2-0.3,0.4-0.5,0.5
	c-0.4,0.2-0.8,0.4-1.2,0.5l0,0c-0.5,0.2-0.8,0.3-1.3,0.3c-0.2,0-0.5,0-0.7-0.1s-0.4-0.2-0.5-0.3c-0.3-0.2-0.5-0.5-0.9-0.8l0,0
	c-0.9-0.8-2-1.2-3-1.2c-0.8,0-1.7,0.2-2.3,0.7c-0.6,0.4-1.1,1-1.3,1.8l0,0l0,0c0,0.1-0.1,0.3-0.1,0.6c0,0.3-0.1,0.6-0.1,1
	c0,0.8-0.1,1.7-0.1,2.6c0,1.5,0.1,3,0.2,4c0,0.3,0.1,0.5,0.1,0.6l0,0l0,0c0.2,0.8,0.7,1.3,1.3,1.7c0.6,0.4,1.4,0.6,2.2,0.6
	c0.8,0,1.6-0.2,2.3-0.6c0.6-0.4,1.1-1,1.3-1.7c0.2-0.8,0.3-1.3,0.3-1.5c-0.2-0.1-0.9-0.2-2-0.2l0,0c-0.3,0-0.6,0-0.8,0
	c-0.2,0-0.5-0.1-0.8-0.2c-0.2-0.1-0.4-0.2-0.5-0.4c-0.2-0.3-0.2-0.6-0.3-0.8c0-0.3,0-0.5,0-0.9c0-0.2,0-0.4,0-0.6
	c0-0.2,0.1-0.5,0.2-0.8c0.1-0.2,0.3-0.3,0.4-0.5c0.2-0.2,0.5-0.2,0.7-0.3c0.3-0.1,0.6-0.1,1-0.1c0.5,0,1.2,0,2.1-0.1
	c0.8,0,1.4,0,1.9,0c0.6,0,1.1,0,1.6,0.1s0.9,0.2,1.3,0.6c0.2,0.2,0.4,0.5,0.5,0.8c0.1,0.4,0.1,0.8,0.1,1.2
	C75.9,34.1,75.8,34.7,75.8,35.3z"/>
<path d="M44.9,49c0.8-1.2,1.1-2.5,1.1-3.8c0-1.2-0.3-2.3-0.9-3.3s-1.5-1.8-2.8-2.3c-0.8-0.3-1.1-0.4-1.8-0.5S38.7,39,36.7,39
	c-1.3,0-2.2,0-2.5,0.2c-0.1,0-0.2,0.1-0.2,0.1c-0.1,0.1-0.1,0.1-0.2,0.4c-0.1,0.3-0.2,0.8-0.2,1.5c-0.1,1-0.1,2.4-0.1,4.2l0,0
	c0,1.3,0,2.6,0,3.8c0,1,0,1.9,0,2.5c0,0.3,0,0.5,0,0.8c0.4,0,0.9,0.1,1.6,0.1c1.7,0,4-0.2,5.4-0.5c0.5-0.1,0.9-0.2,1.1-0.3
	C43.1,51.1,44.2,50.1,44.9,49z"/>
<g>
	<polygon points="25.8,68.8 25.8,68.8 25.8,68.8 26.3,68.9 	"/>
</g>
</svg>
