<?xml version="1.0" encoding="utf-8"?>
<!-- Generator: Adobe Illustrator 28.1.0, SVG Export Plug-In . SVG Version: 6.00 Build 0)  -->
<!DOCTYPE svg PUBLIC "-//W3C//DTD SVG 1.1//EN" "http://www.w3.org/Graphics/SVG/1.1/DTD/svg11.dtd" [
	<!ENTITY st0 "fill:#BB2600;">
	<!ENTITY st1 "fill:#5C5C5C;">
]>
<svg version="1.1" id="Layer_1" xmlns:xodm="http://www.corel.com/coreldraw/odm/2003"
	 xmlns="http://www.w3.org/2000/svg" xmlns:xlink="http://www.w3.org/1999/xlink" x="0px" y="0px" viewBox="0 0 96.4 96.4"
	 style="enable-background:new 0 0 96.4 96.4;" xml:space="preserve">
<g>
	<path style="&st0;" d="M50.3,48.5L35.1,67.4c-0.6,0.7-1,1.8-0.6,2.7c0.3,0.9,1.1,1.4,2,1.4c0.6,0,1.1-0.3,1.5-0.8l18.6-20.8
		c0.7-0.8,0.8-2.1,0-2.9L50.3,48.5z"/>
	<path style="&st0;" d="M50.3,48.5l-0.8-0.6L34.4,66.8l0.8,0.6l-0.7-0.7c-0.6,0.7-1,1.6-1,2.6c0,0.4,0.1,0.7,0.2,1.1l0,0
		c0.5,1.2,1.6,2.1,2.9,2.1l0,0l0,0l0,0c0.9,0,1.7-0.5,2.2-1.2L38,70.7l0.7,0.7l18.6-20.8l0,0c0.6-0.6,0.8-1.4,0.8-2.2
		s-0.3-1.5-0.8-2.1L57,45.9l-7.3,1.7l-0.2,0.3L50.3,48.5l0.2,1l6.3-1.5l-0.2-1l-0.8,0.7c0.2,0.2,0.3,0.5,0.3,0.8s-0.1,0.6-0.3,0.8
		l0,0L37.2,70.1l0,0c-0.2,0.2-0.4,0.4-0.7,0.4v1v-1l0,0c-0.5,0-0.9-0.3-1.1-0.8l0,0l0,0c0-0.1-0.1-0.2-0.1-0.3c0-0.4,0.2-1,0.5-1.3
		l0,0L51,49.2L50.3,48.5l0.2,1L50.3,48.5z"/>
	<path style="&st1;" d="M48.1,48.9l14.5-18.6c0.7-1,1-1.5,0.7-2.3c-0.4-0.9-1.2-1.5-2.1-1.5c-0.5,0-1,0.2-1.4,0.5L41.9,47.3
		c-0.8,0.9-0.8,2.3,0,3.2l22.2,24.8c0.4,0.4,0.9,0.6,1.5,0.6c0.8,0,1.6-0.6,1.9-1.4s0-1.7-0.6-2.5L48.1,48.9"/>
	<path style="&st1;" d="M48.9,49.5l14.5-18.6l0,0c0.3-0.4,0.5-0.7,0.7-1c0.2-0.4,0.3-0.8,0.3-1.2c0-0.3-0.1-0.7-0.2-1l0,0
		c-0.5-1.2-1.6-2.1-3-2.2l0,0H61c-0.7,0-1.5,0.3-2,0.8l0,0L41.1,46.6l0,0c-0.6,0.6-0.8,1.4-0.8,2.2s0.3,1.6,0.9,2.3l0,0l22.2,24.8
		l0,0c0.5,0.6,1.3,0.9,2,0.9h0.2l-0.1-1v1c1.3,0,2.4-0.8,2.8-2l-0.9-0.3l0.9,0.4c0.1-0.3,0.2-0.7,0.2-1c0-0.5-0.1-0.9-0.3-1.3
		c-0.2-0.4-0.4-0.8-0.7-1.1l0,0L48.9,48.3l-1.6,1.3l18.6,23.1l0.8-0.6l-0.8,0.6c0.2,0.3,0.4,0.6,0.5,0.8c0.1,0.2,0.1,0.4,0.1,0.5
		s0,0.2-0.1,0.3l0,0l0,0c-0.2,0.4-0.5,0.7-0.9,0.7l0,0l0,0h-0.1c-0.2,0-0.4-0.1-0.6-0.3l-0.7,0.7l0.7-0.7L42.6,49.8l0,0
		c-0.2-0.3-0.3-0.6-0.3-0.9c0-0.3,0.1-0.7,0.3-0.9l0,0l17.9-20.3L59.8,27l0.7,0.7c0.2-0.2,0.4-0.2,0.6-0.2l0,0l0,0l0,0
		c0.5,0,1,0.4,1.2,0.9l0,0c0.1,0.1,0.1,0.2,0.1,0.2c0,0.1,0,0.1-0.1,0.3c-0.1,0.2-0.3,0.5-0.5,0.8l0.8,0.6l-0.8-0.6L47.3,48.3
		L48.9,49.5z"/>
	<path style="&st0;" d="M56.7,47L35,22.5c0,0-0.8-1-1.6-1c-0.9,0-1.7,0.5-2,1.4c-0.3,0.8-0.1,1.4,0.6,2.5L50.6,49"/>
	<path style="&st0;" d="M57.4,46.3L35.8,21.8L35,22.5l0.8-0.6c0,0-0.3-0.3-0.6-0.7c-0.2-0.2-0.4-0.3-0.7-0.5c-0.3-0.1-0.6-0.3-1-0.3
		l0,0h-0.1c-1.3,0-2.4,0.8-2.9,2l0,0l0,0c-0.1,0.3-0.2,0.7-0.2,1.1s0.1,0.8,0.3,1.2c0.2,0.4,0.4,0.7,0.7,1.1l0,0l18.6,23.6l1.6-1.2
		L32.8,24.7L32,25.3l0.8-0.6c-0.2-0.4-0.4-0.6-0.5-0.8c-0.1-0.2-0.1-0.3-0.1-0.4s0-0.2,0.1-0.3l-0.9-0.4l0.9,0.4
		c0.2-0.5,0.6-0.7,1-0.7l0,0l0,0c0,0,0.1,0,0.2,0.1c0.2,0.1,0.3,0.2,0.5,0.4l0.2,0.2l0,0l0,0l0.3-0.2l-0.3,0.2l0,0l0.3-0.2l-0.3,0.2
		l0,0l21.7,24.6L57.4,46.3z"/>
	<path style="&st1;" d="M26.9,41.7c0.7,0,1.1,0.5,1.4,1.3c0.4-0.8,0.9-1.3,1.7-1.3h5.4c0.8,0,1.5,0.7,1.5,1.5l0,0v3
		c0,1-0.5,1.6-1.5,1.6s-1.5-0.5-1.5-1.6v-1.4h-3.8c-0.5-0.1-0.9,0.3-1,0.8v0.2v10.4h3.6c1,0,1.5,0.5,1.5,1.6c0,1-0.5,1.6-1.5,1.6
		h-9.6c-1,0-1.4-0.5-1.4-1.6s0.5-1.6,1.4-1.6h3V44.8h-2.6c-1,0-1.4-0.5-1.4-1.6c0-1,0.5-1.6,1.4-1.6L26.9,41.7z"/>
	<path style="&st1;" d="M26.9,41.7v1c0.1,0,0.1,0,0.2,0.1s0.2,0.3,0.3,0.6l0.9,2.2l1-2.2c0.1-0.3,0.3-0.5,0.4-0.6s0.2-0.1,0.4-0.1
		h5.4l0,0l0,0c0.1,0,0.2,0,0.3,0.1S36,43,36,43.2l0,0l0,0v3c0,0.2,0,0.3,0,0.4c0,0.1,0,0.1-0.1,0.1c0,0-0.1,0.1-0.4,0.1
		c-0.1,0-0.2,0-0.3,0L35,46.6c0,0-0.1-0.2-0.1-0.4v-2.4h-4.8v1l0.1-1H30c-1,0-1.8,0.8-1.9,1.7v0.1v0.3v11.4h4.6c0.2,0,0.3,0,0.3,0
		l0.1,0.1c0,0,0.1,0.2,0.1,0.4s0,0.3,0,0.4c0,0.1,0,0.1-0.1,0.1c0,0-0.1,0.1-0.4,0.1h-9.6c-0.2,0-0.3,0-0.3,0l-0.1-0.1
		c0,0-0.1-0.2-0.1-0.5c0-0.2,0-0.3,0-0.4c0-0.1,0-0.1,0.1-0.1c0,0,0.1-0.1,0.3-0.1h4V43.8h-3.6c-0.2,0-0.3,0-0.3,0L23,43.7
		c0,0-0.1-0.2-0.1-0.5c0-0.2,0-0.3,0-0.4c0-0.1,0.1-0.1,0.1-0.1s0.1-0.1,0.3-0.1h3.3l0,0v-0.9v-1h-3.3l0,0c-0.3,0-0.7,0-1,0.2
		c-0.5,0.2-0.9,0.5-1.1,1c-0.2,0.4-0.3,0.9-0.3,1.4c0,0.3,0,0.7,0.1,1c0.1,0.5,0.5,0.9,0.9,1.2s0.9,0.4,1.4,0.4h1.6v9.4h-2
		c-0.3,0-0.7,0-1,0.2c-0.5,0.2-0.9,0.5-1.2,1c-0.2,0.4-0.3,0.9-0.3,1.4c0,0.3,0,0.7,0.1,1c0.1,0.5,0.5,0.9,0.9,1.2s0.9,0.4,1.4,0.4
		h9.6c0.3,0,0.7,0,1-0.2c0.5-0.2,0.9-0.5,1.2-0.9s0.3-0.9,0.4-1.5c0-0.3,0-0.7-0.1-1c-0.1-0.5-0.5-0.9-0.9-1.2s-0.9-0.4-1.4-0.4H30
		v-9.4v-0.2h-1l1,0.1h-0.1v0.1c0.1,0,0.1-0.1,0.1-0.1h-0.1v0.1v-0.2v0.2l0,0v-0.2v0.2H30h2.9v0.4c0,0.3,0,0.7,0.1,1
		c0.1,0.5,0.5,0.9,0.9,1.2s0.9,0.4,1.4,0.4c0.3,0,0.7,0,1-0.2c0.5-0.2,0.9-0.5,1.2-1c0.2-0.4,0.3-0.9,0.3-1.4v-3l0,0l0,0l0,0
		c0-0.7-0.3-1.3-0.7-1.8s-1.1-0.8-1.8-0.8l0,0l0,0H30c-0.6,0-1.2,0.2-1.6,0.6c-0.4,0.4-0.8,0.8-1,1.3l0.9,0.4l0.9-0.4
		c-0.2-0.5-0.4-1-0.8-1.3c-0.4-0.4-1-0.6-1.5-0.6l0,0V41.7z"/>
	<path style="&st1;" d="M71.4,41.7c1,0,1.5,0.5,1.5,1.6v13h3.7c1,0,1.5,0.5,1.5,1.6c0,1-0.5,1.6-1.5,1.6H66.2c-1,0-1.5-0.5-1.5-1.6
		c0-1,0.5-1.6,1.5-1.6H70V44.8h-3.1c-1,0-1.5-0.5-1.5-1.6c0-1,0.5-1.6,1.5-1.6L71.4,41.7z M73,34.9c0,1.2-0.9,2.2-2.1,2.3
		c-1.2,0-2.1-1-2.1-2.2s0.9-2.2,2.1-2.3l0,0C72,32.7,72.9,33.7,73,34.9L73,34.9z"/>
	<path style="&st1;" d="M71.4,41.7v1c0.1,0,0.2,0,0.3,0l0.1,0.1c0,0,0.1,0.2,0.1,0.4v14h4.7c0.2,0,0.3,0,0.3,0l0.1,0.1
		c0,0,0.1,0.2,0.1,0.5c0,0.2,0,0.3,0,0.4c0,0.1,0,0.1-0.1,0.1c0,0-0.1,0.1-0.4,0.1H66.2c-0.2,0-0.3,0-0.3,0l-0.1-0.1
		c0,0-0.1-0.2-0.1-0.4s0-0.3,0-0.4c0-0.1,0-0.1,0.1-0.1c0,0,0.1-0.1,0.4-0.1H71V43.8h-4.1c-0.2,0-0.3,0-0.3,0l-0.1-0.1
		c0,0-0.1-0.2-0.1-0.5c0-0.2,0-0.3,0-0.4c0-0.1,0-0.1,0.1-0.1c0,0,0.1-0.1,0.4-0.1h4.6L71.4,41.7v-1h-4.6c-0.3,0-0.7,0-1,0.2
		c-0.5,0.2-0.9,0.5-1.2,1c-0.2,0.4-0.3,0.9-0.3,1.4c0,0.3,0,0.7,0.1,1c0.1,0.5,0.5,0.9,0.9,1.2s0.9,0.4,1.4,0.4h2.1v9.4H66
		c-0.3,0-0.7,0-1,0.2c-0.5,0.2-0.9,0.5-1.2,0.9s-0.3,0.9-0.4,1.5c0,0.3,0,0.7,0.1,1c0.1,0.5,0.5,0.9,0.9,1.2
		c0.4,0.3,0.9,0.4,1.4,0.4h10.4c0.3,0,0.7,0,1-0.2c0.5-0.2,0.9-0.5,1.2-1c0.3-0.4,0.3-0.9,0.3-1.4c0-0.3,0-0.7-0.1-1
		c-0.1-0.5-0.5-0.9-0.9-1.2s-0.9-0.4-1.4-0.4h-2.7v-12c0-0.3,0-0.7-0.1-1c-0.1-0.5-0.5-0.9-0.9-1.2s-0.9-0.4-1.4-0.4v1H71.4z
		 M73,34.9h-1l0,0c0,0.4-0.1,0.7-0.3,0.9c-0.2,0.2-0.5,0.3-0.8,0.3l0,0c-0.3,0-0.6-0.1-0.8-0.3c-0.2-0.2-0.3-0.5-0.4-0.9l0,0l0,0
		c0-0.4,0.1-0.7,0.3-0.9c0.2-0.2,0.5-0.3,0.8-0.3l0,0l0,0v-1v1c0.3,0,0.6,0.1,0.8,0.3c0.2,0.2,0.3,0.5,0.4,0.9H73v-1l0,0h-1v1H73v1
		l0,0h1v-1c0-0.9-0.4-1.7-0.9-2.2c-0.6-0.6-1.3-1-2.2-1l0,0l0,0l0,0l0,0c-0.9,0-1.7,0.4-2.2,1c-0.6,0.6-0.9,1.4-0.9,2.3l0,0l0,0
		c0,0.9,0.3,1.7,0.9,2.3s1.4,1,2.2,1l0,0c0.9,0,1.7-0.4,2.2-1c0.6-0.6,0.9-1.4,0.9-2.3l0,0L73,34.9v1V34.9z"/>
	<path style="&st1;" d="M95.4,43.2c0,0.2,0,0.4-0.1,0.6l-5.4,14.5c-0.2,0.6-0.8,1-1.4,0.9h-2.2c-0.6,0.1-1.2-0.3-1.4-0.9l-5.5-14.5
		c-0.1-0.2-0.1-0.4-0.1-0.6c0-0.9,0.7-1.6,1.5-1.6l0,0c0.6,0,1.2,0.4,1.4,1l5.2,13.8l5.1-13.8c0.2-0.6,0.7-1,1.4-1
		C94.7,41.7,95.4,42.3,95.4,43.2L95.4,43.2z"/>
	<path style="&st1;" d="M95.4,43.2h-1l0,0c0,0.1,0,0.2,0,0.3l0.9,0.3l-0.9-0.3L88.9,58l0,0c-0.1,0.2-0.2,0.3-0.3,0.3l0,0l0,0h-2.2
		l0,0l0,0c-0.1,0-0.3-0.1-0.3-0.3l0,0l-5.5-14.6l0,0v-0.1l0,0l0,0l0,0c0-0.2,0.1-0.3,0.2-0.4c0.1-0.1,0.2-0.1,0.3-0.1l0,0l0,0l0,0
		l0,0l0,0l0,0c0.1,0,0.3,0.1,0.4,0.3l0,0l6.2,16.3l6-16.3l0,0c0.1-0.2,0.2-0.3,0.4-0.3l0,0l0,0l0,0l0,0c0.1,0,0.2,0,0.3,0.1
		c0.1,0.1,0.2,0.2,0.2,0.4l0,0l0,0l0,0L95.4,43.2h1l0,0l0,0l0,0c0-0.7-0.3-1.3-0.7-1.8c-0.4-0.5-1.1-0.7-1.8-0.7h-0.1v1v-1h-0.1
		c-1.1,0-2,0.7-2.3,1.7l1,0.3l-0.9-0.3l-4.1,11.3l-4.3-11.3l-0.9,0.4l1-0.3c-0.3-1-1.2-1.7-2.3-1.7h-0.1v1v-1l0,0l0,0l0,0l0,0
		c-0.7,0-1.3,0.3-1.8,0.8c-0.4,0.5-0.7,1.1-0.7,1.8h1h-1v0.1c0,0.3,0.1,0.7,0.2,1l0.9-0.4l-0.9,0.4L84,59l0.9-0.4l-1,0.3
		c0.3,1,1.2,1.6,2.2,1.6h0.2l-0.1-1v1h2.2v-1l-0.1,1h0.1c1,0,1.9-0.7,2.2-1.6l-0.9-0.3l0.9,0.3L96,44.4l0,0c0.1-0.3,0.2-0.6,0.2-0.9
		l0,0l0,0L95.4,43.2z"/>
	<path style="&st1;" d="M13.4,41.7c1.8,0,3,1.3,3,3.2v14.4H3.5c-1,0.1-1.8-0.7-1.9-1.7v-0.2v-5c0-1.6,1.1-2.9,2.5-3.1l9.3-1.4v-3.2
		H3.1c-0.8,0-1.5-0.6-1.5-1.5v-0.1c0-1.1,0.8-1.6,1.6-1.6L13.4,41.7z M13.4,56.2v-5.1l-8.9,1.3v3.8H13.4z"/>
	<path style="&st1;" d="M13.4,41.7v1c0.7,0,1.1,0.2,1.4,0.6c0.3,0.3,0.5,0.9,0.5,1.7v13.4H3.4l0,0H3.3c-0.4,0-0.7-0.3-0.7-0.8
		l-1,0.1h1v-0.2v-5l0,0c0-1.1,0.8-2,1.7-2.1l-0.2-1l0.1,1l10.1-1.5v-5.1H3.1l0,0l0,0c-0.1,0-0.2,0-0.3-0.1s-0.2-0.2-0.2-0.4h-1h1
		v-0.1l0,0c0-0.3,0.1-0.4,0.1-0.4c0.1-0.1,0.2-0.1,0.4-0.1h10.2l0,0v-1v-1H3.1l0,0c-0.6,0-1.2,0.2-1.7,0.6c-0.5,0.4-0.9,1.2-0.8,1.9
		l0,0v0.1l0,0l0,0c0,0.7,0.3,1.3,0.7,1.7s1.1,0.7,1.7,0.7h0.1v-1v1h9.3V47L4,48.4l0,0c-2,0.3-3.4,2.1-3.4,4.1l0,0v5v0.2l0,0l0,0
		c0.1,1.5,1.3,2.6,2.7,2.6h0.2l-0.1-1v1h13.9V44.9c0-1.2-0.4-2.2-1.1-3c-0.7-0.8-1.8-1.2-2.9-1.2l0,0L13.4,41.7z M13.4,56.2h1V50
		L3.6,51.6v5.6h10.9v-1L13.4,56.2v-1H5.5v-1.9l6.9-1v3.9L13.4,56.2v-1V56.2z"/>
</g>
</svg>
