<?xml version="1.0" encoding="utf-8"?>
<!-- Generator: Adobe Illustrator 28.1.0, SVG Export Plug-In . SVG Version: 6.00 Build 0)  -->
<!DOCTYPE svg PUBLIC "-//W3C//DTD SVG 1.1//EN" "http://www.w3.org/Graphics/SVG/1.1/DTD/svg11.dtd">
<svg version="1.1" id="Layer_1" xmlns:xodm="http://www.corel.com/coreldraw/odm/2003"
	 xmlns="http://www.w3.org/2000/svg" xmlns:xlink="http://www.w3.org/1999/xlink" x="0px" y="0px" viewBox="0 0 96.4 96.4"
	 style="enable-background:new 0 0 96.4 96.4;" xml:space="preserve">
<g>
	<path d="M50.3,48.5L35.1,67.4c-0.6,0.7-1,1.8-0.6,2.7c0.3,0.9,1.1,1.4,2,1.4c0.6,0,1.1-0.3,1.5-0.8l18.6-20.8
		c0.7-0.8,0.8-2.1,0-2.9L50.3,48.5z"/>
	<path d="M50.3,48.5l-0.8-0.6L34.4,66.8l0.8,0.6l-0.7-0.7c-0.6,0.7-1,1.6-1,2.6c0,0.4,0.1,0.7,0.2,1.1l0,0c0.5,1.2,1.6,2.1,2.9,2.1
		l0,0l0,0l0,0c0.9,0,1.7-0.5,2.2-1.2L38,70.7l0.7,0.7l18.6-20.8l0,0c0.6-0.6,0.8-1.4,0.8-2.2c0-0.8-0.3-1.5-0.8-2.1L57,45.9
		l-7.3,1.7l-0.2,0.3L50.3,48.5l0.2,1l6.3-1.5l-0.2-1l-0.8,0.7c0.2,0.2,0.3,0.5,0.3,0.8c0,0.3-0.1,0.6-0.3,0.8l0,0L37.2,70.1l0,0
		c-0.2,0.2-0.4,0.4-0.7,0.4l0,1l0-1l0,0c-0.5,0-0.9-0.3-1.1-0.8l0,0l0,0c0-0.1-0.1-0.2-0.1-0.3c0-0.4,0.2-1,0.5-1.3l0,0l15.2-18.9
		L50.3,48.5l0.2,1L50.3,48.5z"/>
	<path d="M50.3,48.5l14.5-18.6c0.7-1,1-1.5,0.7-2.3c-0.4-0.9-1.2-1.5-2.1-1.5c-0.5,0-1,0.2-1.4,0.5L44.1,46.9
		c-0.8,0.9-0.8,2.3,0,3.2l22.2,24.8c0.4,0.4,0.9,0.6,1.5,0.6c0.8,0,1.6-0.6,1.9-1.4c0.3-0.8,0-1.7-0.6-2.5L50.3,48.5"/>
	<path d="M51.1,49.1l14.5-18.6l0,0c0.3-0.4,0.5-0.7,0.7-1c0.2-0.4,0.3-0.8,0.3-1.2c0-0.3-0.1-0.7-0.2-1l0,0c-0.5-1.2-1.6-2.1-3-2.2
		l0,0l-0.2,0c-0.7,0-1.5,0.3-2,0.8l0,0L43.3,46.2l0,0c-0.6,0.6-0.8,1.4-0.8,2.2c0,0.8,0.3,1.6,0.9,2.3l0,0l22.2,24.8l0,0
		c0.5,0.6,1.3,0.9,2,0.9l0.2,0l-0.1-1l0,1c1.3,0,2.4-0.8,2.8-2l-0.9-0.3l0.9,0.4c0.1-0.3,0.2-0.7,0.2-1c0-0.5-0.1-0.9-0.3-1.3
		c-0.2-0.4-0.4-0.8-0.7-1.1l0,0L51.1,47.9l-1.6,1.3l18.6,23.1l0.8-0.6l-0.8,0.6c0.2,0.3,0.4,0.6,0.5,0.8c0.1,0.2,0.1,0.4,0.1,0.5
		c0,0.1,0,0.2-0.1,0.3l0,0l0,0c-0.2,0.4-0.5,0.7-0.9,0.7l0,0l0,0l-0.1,0c-0.2,0-0.4-0.1-0.6-0.3l-0.7,0.7l0.7-0.7L44.8,49.4l0,0
		c-0.2-0.3-0.3-0.6-0.3-0.9c0-0.3,0.1-0.7,0.3-0.9l0,0l17.9-20.3L62,26.6l0.7,0.7c0.2-0.2,0.4-0.2,0.6-0.2l0,0l0,0l0,0
		c0.5,0,1,0.4,1.2,0.9l0,0c0.1,0.1,0.1,0.2,0.1,0.2c0,0.1,0,0.1-0.1,0.3c-0.1,0.2-0.3,0.5-0.5,0.8l0.8,0.6L64,29.3L49.5,47.9
		L51.1,49.1z"/>
	<path d="M56.7,47L35,22.5c0,0-0.8-1-1.6-1c-0.9,0-1.7,0.5-2,1.4c-0.3,0.8-0.1,1.4,0.6,2.5l18.6,23.6"/>
	<path d="M57.4,46.3L35.8,21.8L35,22.5l0.8-0.6c0,0-0.3-0.3-0.6-0.7c-0.2-0.2-0.4-0.3-0.7-0.5c-0.3-0.1-0.6-0.3-1-0.3l0,0l-0.1,0
		c-1.3,0-2.4,0.8-2.9,2l0,0l0,0c-0.1,0.3-0.2,0.7-0.2,1.1c0,0.4,0.1,0.8,0.3,1.2c0.2,0.4,0.4,0.7,0.7,1.1l0,0l18.6,23.6l1.6-1.2
		L32.8,24.7L32,25.3l0.8-0.6c-0.2-0.4-0.4-0.6-0.5-0.8c-0.1-0.2-0.1-0.3-0.1-0.4c0-0.1,0-0.2,0.1-0.3l-0.9-0.4l0.9,0.4
		c0.2-0.5,0.6-0.7,1-0.7l0,0l0,0c0,0,0.1,0,0.2,0.1c0.2,0.1,0.3,0.2,0.5,0.4l0.2,0.2l0,0l0,0l0.3-0.2l-0.3,0.2l0,0l0.3-0.2l-0.3,0.2
		l0,0l21.7,24.6L57.4,46.3z"/>
	<path d="M26.9,41.7c0.7,0,1.1,0.5,1.4,1.3c0.4-0.8,0.9-1.3,1.7-1.3h5.4c0.8,0,1.5,0.7,1.5,1.5v0v3c0,1-0.5,1.6-1.5,1.6
		c-1,0-1.5-0.5-1.5-1.6v-1.4h-3.8c-0.5-0.1-0.9,0.3-1,0.8l0,0.2v10.4h3.6c1,0,1.5,0.5,1.5,1.6c0,1-0.5,1.6-1.5,1.6h-9.6
		c-1,0-1.4-0.5-1.4-1.6s0.5-1.6,1.4-1.6h3V44.8h-2.6c-1,0-1.4-0.5-1.4-1.6c0-1,0.5-1.6,1.4-1.6L26.9,41.7z"/>
	<path d="M26.9,41.7v1c0.1,0,0.1,0,0.2,0.1c0.1,0.1,0.2,0.3,0.3,0.6l0.9,2.2l1-2.2c0.1-0.3,0.3-0.5,0.4-0.6c0.1-0.1,0.2-0.1,0.4-0.1
		h5.4l0,0l0,0c0.1,0,0.2,0,0.3,0.1c0.1,0.1,0.2,0.2,0.2,0.4l0,0v0v3c0,0.2,0,0.3,0,0.4c0,0.1,0,0.1-0.1,0.1c0,0-0.1,0.1-0.4,0.1
		c-0.1,0-0.2,0-0.3,0L35,46.6c0,0-0.1-0.2-0.1-0.4v-2.4h-4.8v1l0.1-1l-0.2,0c-1,0-1.8,0.8-1.9,1.7l0,0.1l0,0.3v11.4h4.6
		c0.2,0,0.3,0,0.3,0l0.1,0.1c0,0,0.1,0.2,0.1,0.4c0,0.2,0,0.3,0,0.4c0,0.1,0,0.1-0.1,0.1c0,0-0.1,0.1-0.4,0.1h-9.6
		c-0.2,0-0.3,0-0.3,0l-0.1-0.1c0,0-0.1-0.2-0.1-0.5c0-0.2,0-0.3,0-0.4c0-0.1,0-0.1,0.1-0.1c0,0,0.1-0.1,0.3-0.1h4V43.8h-3.6
		c-0.2,0-0.3,0-0.3,0l-0.1-0.1c0,0-0.1-0.2-0.1-0.5c0-0.2,0-0.3,0-0.4c0-0.1,0.1-0.1,0.1-0.1c0,0,0.1-0.1,0.3-0.1l3.3,0h0V41.7l0-1
		l-3.3,0h0c-0.3,0-0.7,0-1,0.2c-0.5,0.2-0.9,0.5-1.1,1c-0.2,0.4-0.3,0.9-0.3,1.4c0,0.3,0,0.7,0.1,1c0.1,0.5,0.5,0.9,0.9,1.2
		c0.4,0.3,0.9,0.4,1.4,0.4h1.6v9.4h-2c-0.3,0-0.7,0-1,0.2c-0.5,0.2-0.9,0.5-1.2,1c-0.2,0.4-0.3,0.9-0.3,1.4c0,0.3,0,0.7,0.1,1
		c0.1,0.5,0.5,0.9,0.9,1.2c0.4,0.3,0.9,0.4,1.4,0.4h9.6c0.3,0,0.7,0,1-0.2c0.5-0.2,0.9-0.5,1.2-0.9c0.3-0.4,0.3-0.9,0.4-1.5
		c0-0.3,0-0.7-0.1-1c-0.1-0.5-0.5-0.9-0.9-1.2c-0.4-0.3-0.9-0.4-1.4-0.4h-2.6l0-9.4l0-0.2l-1,0l1,0.1l-0.1,0v0.1
		c0.1,0,0.1-0.1,0.1-0.1l-0.1,0v0.1v-0.2l0,0.2l0,0v-0.2l0,0.2l0.1,0h2.9v0.4c0,0.3,0,0.7,0.1,1c0.1,0.5,0.5,0.9,0.9,1.2
		c0.4,0.3,0.9,0.4,1.4,0.4c0.3,0,0.7,0,1-0.2c0.5-0.2,0.9-0.5,1.2-1c0.2-0.4,0.3-0.9,0.3-1.4v-3v0v0l0,0c0-0.7-0.3-1.3-0.7-1.8
		c-0.4-0.5-1.1-0.8-1.8-0.8l0,0l0,0H30c-0.6,0-1.2,0.2-1.6,0.6c-0.4,0.4-0.8,0.8-1,1.3l0.9,0.4l0.9-0.4c-0.2-0.5-0.4-1-0.8-1.3
		c-0.4-0.4-1-0.6-1.5-0.6h0L26.9,41.7z"/>
	<path d="M71.4,41.7c1,0,1.5,0.5,1.5,1.6v13h3.7c1,0,1.5,0.5,1.5,1.6c0,1-0.5,1.6-1.5,1.6H66.2c-1,0-1.5-0.5-1.5-1.6
		c0-1,0.5-1.6,1.5-1.6h3.8V44.8h-3.1c-1,0-1.5-0.5-1.5-1.6c0-1,0.5-1.6,1.5-1.6L71.4,41.7z M73,34.9c0,1.2-0.9,2.2-2.1,2.3
		c-1.2,0-2.1-1-2.1-2.2c0-1.2,0.9-2.2,2.1-2.3h0C72,32.7,72.9,33.7,73,34.9L73,34.9z"/>
	<path d="M71.4,41.7v1c0.1,0,0.2,0,0.3,0l0.1,0.1c0,0,0.1,0.2,0.1,0.4v14h4.7c0.2,0,0.3,0,0.3,0l0.1,0.1c0,0,0.1,0.2,0.1,0.5
		c0,0.2,0,0.3,0,0.4c0,0.1,0,0.1-0.1,0.1c0,0-0.1,0.1-0.4,0.1H66.2c-0.2,0-0.3,0-0.3,0l-0.1-0.1c0,0-0.1-0.2-0.1-0.4
		c0-0.2,0-0.3,0-0.4c0-0.1,0-0.1,0.1-0.1c0,0,0.1-0.1,0.4-0.1h4.8V43.8h-4.1c-0.2,0-0.3,0-0.3,0l-0.1-0.1c0,0-0.1-0.2-0.1-0.5
		c0-0.2,0-0.3,0-0.4c0-0.1,0-0.1,0.1-0.1c0,0,0.1-0.1,0.4-0.1l4.6,0L71.4,41.7l0-1l-4.6,0c-0.3,0-0.7,0-1,0.2
		c-0.5,0.2-0.9,0.5-1.2,1c-0.2,0.4-0.3,0.9-0.3,1.4c0,0.3,0,0.7,0.1,1c0.1,0.5,0.5,0.9,0.9,1.2c0.4,0.3,0.9,0.4,1.4,0.4h2.1v9.4
		h-2.8c-0.3,0-0.7,0-1,0.2c-0.5,0.2-0.9,0.5-1.2,0.9c-0.3,0.4-0.3,0.9-0.4,1.5c0,0.3,0,0.7,0.1,1c0.1,0.5,0.5,0.9,0.9,1.2
		c0.4,0.3,0.9,0.4,1.4,0.4h10.4c0.3,0,0.7,0,1-0.2c0.5-0.2,0.9-0.5,1.2-1c0.3-0.4,0.3-0.9,0.3-1.4c0-0.3,0-0.7-0.1-1
		c-0.1-0.5-0.5-0.9-0.9-1.2c-0.4-0.3-0.9-0.4-1.4-0.4h-2.7v-12c0-0.3,0-0.7-0.1-1c-0.1-0.5-0.5-0.9-0.9-1.2
		c-0.4-0.3-0.9-0.4-1.4-0.4V41.7z M73,34.9l-1,0l0,0c0,0.4-0.1,0.7-0.3,0.9c-0.2,0.2-0.5,0.3-0.8,0.3l0,0c-0.3,0-0.6-0.1-0.8-0.3
		c-0.2-0.2-0.3-0.5-0.4-0.9l0,0l0,0c0-0.4,0.1-0.7,0.3-0.9c0.2-0.2,0.5-0.3,0.8-0.3l0,0h0v-1l0,1c0.3,0,0.6,0.1,0.8,0.3
		c0.2,0.2,0.3,0.5,0.4,0.9L73,34.9l0-1h0h-1l0,1L73,34.9v1h0h1l0-1c0-0.9-0.4-1.7-0.9-2.2c-0.6-0.6-1.3-1-2.2-1l0,0h0h0l0,0
		c-0.9,0-1.7,0.4-2.2,1c-0.6,0.6-0.9,1.4-0.9,2.3l0,0l0,0c0,0.9,0.3,1.7,0.9,2.3c0.6,0.6,1.4,1,2.2,1l0,0c0.9,0,1.7-0.4,2.2-1
		c0.6-0.6,0.9-1.4,0.9-2.3l0,0L73,34.9v1V34.9z"/>
	<path d="M95.4,43.2c0,0.2,0,0.4-0.1,0.6l-5.4,14.5c-0.2,0.6-0.8,1-1.4,0.9h-2.2c-0.6,0.1-1.2-0.3-1.4-0.9l-5.5-14.5
		c-0.1-0.2-0.1-0.4-0.1-0.6c0-0.9,0.7-1.6,1.5-1.6l0,0c0.6,0,1.2,0.4,1.4,1l5.2,13.8l5.1-13.8c0.2-0.6,0.7-1,1.4-1
		C94.7,41.7,95.4,42.3,95.4,43.2L95.4,43.2z"/>
	<path d="M95.4,43.2l-1,0l0,0c0,0.1,0,0.2,0,0.3l0.9,0.3l-0.9-0.3L88.9,58l0,0c-0.1,0.2-0.2,0.3-0.3,0.3l0,0l0,0h-2.2l0,0l0,0
		c-0.1,0-0.3-0.1-0.3-0.3l0,0l-5.5-14.6l0,0l0-0.1l0,0l0,0l0,0c0-0.2,0.1-0.3,0.2-0.4c0.1-0.1,0.2-0.1,0.3-0.1h0l0,0l0,0l0,0l0,0
		l0,0c0.1,0,0.3,0.1,0.4,0.3l0,0l6.2,16.3l6-16.3l0,0c0.1-0.2,0.2-0.3,0.4-0.3l0,0l0,0l0,0l0,0c0.1,0,0.2,0,0.3,0.1
		c0.1,0.1,0.2,0.2,0.2,0.4l0,0l0,0v0L95.4,43.2l1,0l0,0l0,0l0,0c0-0.7-0.3-1.3-0.7-1.8c-0.4-0.5-1.1-0.7-1.8-0.7l-0.1,0l0,1l0-1
		l-0.1,0c-1.1,0-2,0.7-2.3,1.7l1,0.3l-0.9-0.3l-4.1,11.3l-4.3-11.3l-0.9,0.4l1-0.3c-0.3-1-1.2-1.7-2.3-1.7l-0.1,0l0,1l0-1l0,0l0,0
		l0,0l0,0c-0.7,0-1.3,0.3-1.8,0.8c-0.4,0.5-0.7,1.1-0.7,1.8l1,0l-1,0l0,0.1c0,0.3,0.1,0.7,0.2,1l0.9-0.4l-0.9,0.4l5.5,14.5l0.9-0.4
		l-1,0.3c0.3,1,1.2,1.6,2.2,1.6l0.2,0l-0.1-1v1h2.2v-1l-0.1,1l0.1,0c1,0,1.9-0.7,2.2-1.6l-0.9-0.3l0.9,0.3l5.4-14.5l0,0
		c0.1-0.3,0.2-0.6,0.2-0.9l0,0v0L95.4,43.2z"/>
	<path d="M13.4,41.7c1.8,0,3,1.3,3,3.2v14.4H3.5c-1,0.1-1.8-0.7-1.9-1.7l0-0.2v-5c0-1.6,1.1-2.9,2.5-3.1l9.3-1.4v-3.2H3.1
		c-0.8,0-1.5-0.6-1.5-1.5l0-0.1c0-1.1,0.8-1.6,1.6-1.6L13.4,41.7z M13.4,56.2v-5.1l-8.9,1.3v3.8L13.4,56.2z"/>
	<path d="M13.4,41.7v1c0.7,0,1.1,0.2,1.4,0.6c0.3,0.3,0.5,0.9,0.5,1.7v13.4l-11.9,0l0,0l-0.1,0c-0.4,0-0.7-0.3-0.7-0.8l-1,0.1l1,0
		l0-0.2v-5l0,0c0-1.1,0.8-2,1.7-2.1l-0.2-1l0.1,1l10.1-1.5v-5.1H3.1l0,0l0,0c-0.1,0-0.2,0-0.3-0.1c-0.1-0.1-0.2-0.2-0.2-0.4l-1,0
		l1,0l0-0.1l0,0c0-0.3,0.1-0.4,0.1-0.4c0.1-0.1,0.2-0.1,0.4-0.1l10.2,0h0V41.7l0-1l-10.2,0h0c-0.6,0-1.2,0.2-1.7,0.6
		c-0.5,0.4-0.9,1.2-0.8,1.9v0l0,0.1l0,0l0,0c0,0.7,0.3,1.3,0.7,1.7c0.4,0.4,1.1,0.7,1.7,0.7l0.1,0l0-1v1h9.3v1.3L4,48.4l0,0
		c-2,0.3-3.4,2.1-3.4,4.1l0,0v5l0,0.2l0,0l0,0c0.1,1.5,1.3,2.6,2.7,2.6l0.2,0l-0.1-1v1h13.9V44.9c0-1.2-0.4-2.2-1.1-3
		c-0.7-0.8-1.8-1.2-2.9-1.2h0L13.4,41.7z M13.4,56.2h1V50L3.6,51.6v5.6l10.9,0v-1H13.4l0-1l-7.9,0v-1.9l6.9-1v3.9H13.4l0-1
		L13.4,56.2z"/>
</g>
</svg>
